<?xml version="1.0" standalone="no"?><!DOCTYPE svg PUBLIC "-//W3C//DTD SVG 1.1//EN" "http://www.w3.org/Graphics/SVG/1.1/DTD/svg11.dtd"><svg class="icon" width="200px" height="200.00px" viewBox="0 0 1024 1024" version="1.1" xmlns="http://www.w3.org/2000/svg"><path fill="#333333" d="M503.434415 132.042315c29.02915 1.11438 66.919109 20.917402 89.367377 42.429345C718.944747 295.333332 858.895173 416.027182 982.574007 539.41949c9.827833 9.812483 28.430516 31.892361 15.95232 45.87277-12.479219 13.979386-38.365796-10.044774-48.657186-20.001543C829.057611 448.467011 698.355827 334.539262 578.435597 216.779232c-57.881268-56.836473-91.095741-57.848523-149.646252-0.473791C312.30947 330.432735 194.088952 443.85497 77.793272 558.167482c-8.29799 8.16496-36.773532 46.348608-56.275701 25.859971-13.94357-14.646582 17.309224-42.760896 23.246447-48.585555 121.096009-118.931716 241.256716-238.835573 364.141464-355.905896C433.636746 155.953911 474.404242 130.928958 503.434415 132.042315zM62.825372 574.542428l0.665149 353.680205c0 0 3.777023 75.480088 73.415057 76.335572s111.301945 1.568728 175.914522 0.355087c64.6136-1.213641 89.232301-43.396369 89.591481-89.845261 0.360204-46.448892 0-200.698998 0-200.698998s-3.244904-36.505425 39.613206-37.842887c42.85811-1.337461 145.945977 1.257643 145.945977 1.257643s31.215956-2.4017 31.275307 52.703339l0 184.183859c0 0 14.015202 89.681532 88.716554 90.88801 74.701352 1.208525 178.055279 0 178.055279 0s72.02029 4.205788 73.082482-95.018074 2.642177-327.361793 2.642177-334.043982c-2.668783-2.756787-47.072085-45.025473-47.072085-45.025473l0 386.268414c0 0-8.18645 40.932248-30.699186 40.932248l-161.682379 1.023306c0 0-48.095391-12.279674-53.211922-61.398372l0-186.241728c0 0-10.233062-68.561515-82.887802-82.887802-73.656557-6.919597-152.472624-2.046612-152.472624-2.046612s-78.794577 11.256368-83.911108 84.934414-2.046612 214.894302-2.046612 214.894302-2.046612 27.629267-40.932248 28.652574-152.472624 0-152.472624 0-40.932248 2.046612-40.932248-46.048779l-1.023306-385.245108C112.399441 524.30935 75.004763 560.101531 62.825372 574.542428zM503.434415 4.129041c29.02915 1.11438 66.919109 20.917402 89.367377 42.429345C718.944747 167.420057 858.895173 288.113907 982.574007 411.506215c9.827833 9.812483 28.430516 31.892361 15.95232 45.87277-12.479219 13.979386-38.365796-10.044774-48.657186-20.001543C829.057611 320.553737 698.355827 206.625988 578.435597 88.865957c-57.880245-56.836473-91.094718-57.848523-149.646252-0.473791C312.30947 202.520483 194.088952 315.941696 77.793272 430.254208c-8.29799 8.16496-36.773532 46.348608-56.275701 25.859971-13.94357-14.646582 17.309224-42.760896 23.246447-48.585555 121.096009-118.931716 241.256716-238.835573 364.141464-355.905896C433.636746 28.040636 474.404242 3.015683 503.434415 4.129041z" /></svg>