<?xml version="1.0" standalone="no"?><!DOCTYPE svg PUBLIC "-//W3C//DTD SVG 1.1//EN" "http://www.w3.org/Graphics/SVG/1.1/DTD/svg11.dtd"><svg class="icon" width="200px" height="200.00px" viewBox="0 0 1024 1024" version="1.1" xmlns="http://www.w3.org/2000/svg"><path fill="#333333" d="M908.836676 353.558739c-1.467049-8.802292-4.401146-17.604585-8.802292-23.472779-7.335244-8.802292-26.406877-8.802292-26.406877-8.802292s17.604585-1.467049 26.406877-8.802293c10.269341-8.802292 10.269341-26.406877 10.269341-26.406876s0 16.137536 10.269341 26.406876c8.802292 8.802292 26.406877 8.802292 26.406877 8.802293s-20.538682 1.467049-29.340975 8.802292c-10.269341 7.335244-8.802292 19.071633-8.802292 23.472779z m0 0c1.467049 4.401146 1.467049 8.802292 1.467049 8.802293s-1.467049-4.401146-1.467049-8.802293z m-101.226361-39.610315c-1.467049-10.269341-7.335244-39.610315-23.472779-60.148997-19.071633-23.472779-66.017192-23.472779-67.484241-23.472779 0 0 45.47851-2.934097 67.484241-23.47278 23.472779-23.472779 23.472779-64.550143 23.472779-64.550143s1.467049 42.544413 23.47278 64.550143c22.005731 22.005731 67.484241 23.472779 67.48424 23.47278s-52.813754 1.467049-74.819484 23.472779c-17.604585 19.071633-17.604585 49.879656-16.137536 60.148997z m0 0l2.934098 8.802292s-1.467049-2.934097-2.934098-8.802292z m130.567335 710.051576H490.727794l-66.017192-630.830946h576.550143l-63.083095 630.830946z m-407.839541-48.412607h369.696275l55.747851-542.808023H474.590258l55.747851 542.808023z m184.848137-287.541548c-55.747851 0-108.561605-22.005731-146.704871-60.148997-39.610315-39.610315-60.148997-92.424069-60.148997-146.704871h48.412608c0 88.022923 71.885387 159.908309 159.908309 159.90831s159.908309-71.885387 159.90831-159.90831h48.412607c0 55.747851-22.005731 108.561605-60.148997 146.704871-42.544413 38.143266-95.358166 60.148997-149.638969 60.148997zM21.272206 894.899713c4.401146-98.292264 79.22063-178.979943 176.045846-190.716332V140.836676c-10.269341-4.401146-16.137536-14.670487-16.137536-24.939828v-88.022922c0-16.137536 13.203438-27.873926 27.873925-27.873926h23.47278c16.137536 0 27.873926 13.203438 27.873925 27.873926v86.555873c0 10.269341-5.868195 20.538682-16.137536 24.939829V704.183381c96.825215 11.73639 171.644699 92.424069 174.578797 190.716332v127.633238H21.272206V894.899713z m48.412608 80.68768H373.363897v-32.275072H69.684814v32.275072zM373.363897 894.899713c0-83.621777-67.484241-143.770774-151.106017-143.770773C138.636103 751.12894 71.151862 811.277937 71.151862 894.899713H373.363897z" /></svg>