<?xml version="1.0" standalone="no"?><!DOCTYPE svg PUBLIC "-//W3C//DTD SVG 1.1//EN" "http://www.w3.org/Graphics/SVG/1.1/DTD/svg11.dtd"><svg class="icon" width="200px" height="200.00px" viewBox="0 0 1024 1024" version="1.1" xmlns="http://www.w3.org/2000/svg"><path fill="#333333" d="M389.818775 729.547735c0 67.178005-54.481845 121.659851-121.659851 121.659851-67.178005 0-121.660874-54.480822-121.660874-121.659851s54.481845-121.659851 121.660874-121.659851C335.33693 607.887884 389.818775 662.368706 389.818775 729.547735zM268.158924 656.778384c-40.222073 0-72.816422 32.594349-72.816422 72.815399 0 40.175001 32.595372 72.768327 72.816422 72.768327 40.22105 0 72.767304-32.594349 72.767304-72.768327C340.927251 689.372733 308.379974 656.778384 268.158924 656.778384zM875.557668 729.594807c0 67.178005-54.481845 121.659851-121.659851 121.659851-67.178005 0-121.660874-54.480822-121.660874-121.659851 0-67.176982 54.481845-121.659851 121.660874-121.659851C821.074799 607.934956 875.557668 662.416801 875.557668 729.594807zM753.897817 656.825456c-40.222073 0-72.816422 32.595372-72.816422 72.816422 0 40.173978 32.595372 72.767304 72.816422 72.767304 40.22105 0 72.767304-32.594349 72.767304-72.767304C826.665121 689.420829 794.118867 656.825456 753.897817 656.825456zM607.886349 583.631434c0 13.407358-10.896164 24.303522-24.303522 24.303522L438.89961 607.934956c-13.407358 0-24.303522-10.896164-24.303522-24.303522l0 0c0-13.407358 10.896164-24.303522 24.303522-24.303522l144.68424 0C596.990185 559.327912 607.886349 570.224076 607.886349 583.631434L607.886349 583.631434zM607.981517 729.594807c0 13.408381-10.896164 24.303522-24.303522 24.303522L438.994778 753.898329c-13.408381 0-24.303522-10.895141-24.303522-24.303522l0 0c0-13.407358 10.895141-24.303522 24.303522-24.303522l144.68424 0C597.085352 705.291285 607.981517 716.187449 607.981517 729.594807L607.981517 729.594807zM99.265306 220.499973 535.118022 220.499973c0 0 0 264.543072 0 293.348118s48.986691 28.045753 48.986691 0-0.284479-294.863634 0-313.055972c0.283456-18.192338-11.655458-28.046776-24.25645-28.046776-12.602016 0-459.824687 0-481.049081 0-21.223371 0-27.287483 10.80202-27.287483 23.214724 0 12.411681 0.047072 508.10018 0 527.855106-0.048095 19.707854 7.579629 30.082132 27.287483 30.082132 13.644765 0 0 0 17.434068 0 34.109866 0 34.868135-48.607044 2.27481-48.607044L99.265306 220.499973zM680.655699 269.01185l157.664879 0 84.896552 193.765075 0 242.513336c-31.078833-1.183965-31.836079 48.086182 0 48.607044 21.223371 0 24.729218 0 24.729218 0s24.539906-1.848091 24.539906-24.303522 0-277.145088 0-277.145088-83.569324-196.323341-93.233428-213.757408c-9.665127-17.434068-9.665127-17.434068-28.331255-17.434068-18.666128 0-166.477592 0-189.974749 0s-28.709879 8.337899-28.709879 27.288506 0.095167 228.91769 0 251.6576c-0.094144 22.73991 4.217045 34.725896 24.635073 38.657438 20.419052 3.932566 148.85319 28.804023 177.657212 34.868135s38.657438-43.207058 9.854439-47.75463c-34.110889-6.774287-163.728992-32.594349-163.728992-32.594349L680.654676 269.01185z" /></svg>