<?xml version="1.0" standalone="no"?><!DOCTYPE svg PUBLIC "-//W3C//DTD SVG 1.1//EN" "http://www.w3.org/Graphics/SVG/1.1/DTD/svg11.dtd"><svg class="icon" width="200px" height="200.00px" viewBox="0 0 1024 1024" version="1.1" xmlns="http://www.w3.org/2000/svg"><path fill="#333333" d="M517.750981 345.83554l0-58.837036c0-20.448728-16.307408-37.004799-36.421514-37.004799-2.49789 0-4.933359 0.25071-7.284917 0.729617l0-45.013193c0-32.543184-26.045189-59.044768-58.173934-59.044768l-233.298464 0c-32.134885 0-58.173934 26.436092-58.173934 59.044768l0 45.017286c-2.353604-0.481977-4.789073-0.734734-7.283894-0.734734-20.255323 0-36.421514 16.567327-36.421514 37.004799l0 58.837036c0 20.448728 16.258289 37.005822 36.313044 37.005822l7.392364 0 0 81.133855c0 3.993964 3.279696 7.43125 7.325849 7.43125l23.341614 0c4.086062 0 8.140401-3.178389 9.145287-7.101745l20.877493-81.46336 228.201375 0 20.877493 81.46336c1.004887 3.923356 5.059226 7.101745 9.145287 7.101745l23.341614 0c4.046153 0 7.324826-3.437286 7.324826-7.43125l0-81.133855 7.459902 0C501.461993 382.842385 517.750981 366.274034 517.750981 345.83554zM138.967028 205.847252c0-24.495904 19.549242-44.417629 43.664475-44.417629l233.180783 0c24.118304 0 43.663452 19.886933 43.663452 44.417629l0 51.476395c-8.868995 6.727215-14.56881 17.464767-14.56881 29.560246l0 22.153556-291.372114 0 0-22.153556c0-12.109806-5.722328-22.817682-14.567787-29.534663L138.967028 205.847252zM151.120836 456.647321l-12.153808 0 0-73.804936 31.068599 0L151.120836 456.647321zM459.409225 456.647321l-12.153808 0-18.913768-73.804936 31.068599 0L459.410248 456.647321zM503.18217 345.916381c0 12.240789-9.643638 22.165836-21.906939 22.165836l-364.107695 0c-12.098549 0-21.906939-9.907651-21.906939-22.165836l0-58.994626c0-12.240789 9.699919-22.165836 21.852704-22.165836 12.068873 0 21.852704 10.016121 21.852704 22.153556l0 29.650297c0 3.998057 3.335978 7.240915 7.28901 7.240915l305.930691 0c4.025687 0 7.28901-3.175319 7.28901-7.240915l0-29.650297c0-12.234649 9.699919-22.153556 21.852704-22.153556 12.068873 0 21.852704 9.907651 21.852704 22.165836L503.180124 345.916381zM616.289228 529.396205l19.822464 0c4.123924 0 8.05649-3.245927 8.988722-7.252171l39.35431-169.033811 138.127917 0 39.380916 169.033811c0.933255 4.006244 4.866844 7.252171 8.990768 7.252171l19.822464 0c4.031826 0 6.925736-3.314489 6.480598-7.252171l-19.1215-169.272241c3.118014-0.839111 5.4225-3.784186 5.4225-7.106862l0-7.345292c0-21.757536-11.638061-40.754193-28.90226-50.91153l0-169.570024c0-16.160051-12.963243-29.258371-28.986171-29.258371l-144.340409 0c-16.008602 0-28.986171 13.162788-28.986171 29.258371l0 169.573093c-17.275455 10.169617-28.90226 29.186739-28.90226 50.90846l0 7.345292c0 3.441379 2.365884 6.329149 5.487991 7.126304l-19.119453 169.252799C609.363492 526.081717 612.258425 529.396205 616.289228 529.396205zM881.870955 514.705622l-6.788613 0-37.648458-161.596422 26.183336 0L881.870955 514.705622zM666.792459 118.081349c0-8.124028 6.585999-14.712073 14.486946-14.712073l144.437623 0c8.000208 0 14.486946 6.513344 14.486946 14.712073l0 163.41586c-4.597715-1.203408-9.414417-1.839905-14.375405-1.839905l-144.659681 0c-4.963035 0-9.779737 0.638543-14.375405 1.839905L666.793482 118.081349zM681.380712 294.347888l144.236032 0c24.019043 0 43.48949 19.671015 43.48949 44.096311l-231.215012 0C637.891222 314.090535 657.20715 294.347888 681.380712 294.347888zM643.448798 353.1092l26.183336 0-37.648458 161.596422-6.789637 0L643.448798 353.1092zM288.541649 730.85552c3.964288 0 7.394411-3.239787 7.394411-7.234775l0-29.345352c0-4.082992-3.310396-7.234775-7.394411-7.234775-3.964288 0-7.394411 3.239787-7.394411 7.234775l0 29.345352C281.148261 727.703737 284.458657 730.85552 288.541649 730.85552zM318.048683 876.901781l29.711695 0c4.13518 0 7.325849-3.269463 7.325849-7.302313 0-3.91517-3.279696-7.302313-7.325849-7.302313l-29.711695 0c-4.13518 0-7.325849 3.269463-7.325849 7.302313C310.723857 873.514637 314.003554 876.901781 318.048683 876.901781zM399.468041 540.995381l-281.003975 0c-8.28264 0-14.769378 6.588045-14.769378 14.71412l0 335.688435c0 8.157797 6.612605 14.71412 14.769378 14.71412l14.806217 0 0 21.974477c0 4.084015 3.310396 7.234775 7.394411 7.234775 3.964288 0 7.393387-3.239787 7.393387-7.234775l0-21.974477 221.815945 0 0 21.974477c0 4.084015 3.310396 7.234775 7.393387 7.234775 3.964288 0 7.394411-3.239787 7.394411-7.234775l0-21.974477 14.806217 0c8.28264 0 14.769378-6.588045 14.769378-14.71412l0-335.688435C414.237419 547.550681 407.624814 540.995381 399.468041 540.995381zM251.572666 891.506407l-133.089158 0 0-43.813878 133.089158 0L251.572666 891.506407zM251.572666 833.087902l-133.089158 0 0-277.488919 133.089158 0L251.572666 833.087902zM399.449621 891.506407l-133.089158 0 0-43.813878 133.089158 0L399.449621 891.506407zM399.449621 833.087902l-133.089158 0 0-277.488919 133.089158 0L399.449621 833.087902zM229.391481 730.85552c3.964288 0 7.394411-3.239787 7.394411-7.234775l0-29.345352c0-4.082992-3.310396-7.234775-7.394411-7.234775-3.964288 0-7.394411 3.239787-7.394411 7.234775l0 29.345352C221.99707 727.703737 225.307466 730.85552 229.391481 730.85552zM170.171728 876.901781l29.711695 0c4.13518 0 7.325849-3.269463 7.325849-7.302313 0-3.91517-3.279696-7.302313-7.325849-7.302313l-29.711695 0c-4.13518 0-7.325849 3.269463-7.325849 7.302313C162.846902 873.514637 166.126598 876.901781 170.171728 876.901781zM935.140183 622.179378l-432.223049 0c-4.511757 0-8.16803 3.474125-8.16803 7.978718l0 32.364105c0 4.40738 3.429099 7.980765 8.085142 7.980765l23.954575 0 0 233.581919c0 4.440126 3.715625 8.039093 8.010441 8.039093 4.423753 0 8.010441-3.603061 8.010441-8.039093L542.809703 670.50399l57.778938 0 112.544239 102.875019c3.206018 2.930749 8.53642 2.976798 11.793604 0L837.4697 670.50399l57.778938 0 0 233.581919c0 4.440126 3.715625 8.039093 8.009418 8.039093 4.423753 0 8.010441-3.603061 8.010441-8.039093L911.268496 670.50399l23.954575 0c4.465708 0 8.085142-3.476171 8.085142-7.980765l0-32.364105C943.308213 625.75174 939.696965 622.179378 935.140183 622.179378zM510.767939 654.395104l0-16.108886 54.574966 0 17.622356 16.108886L510.767939 654.395104zM719.028147 756.998947l-129.868813-118.712729 259.738649 0L719.028147 756.998947zM927.288354 654.395104l-72.197322 0 17.622356-16.108886 54.575989 0L927.289378 654.395104z" /></svg>