<?xml version="1.0" standalone="no"?><!DOCTYPE svg PUBLIC "-//W3C//DTD SVG 1.1//EN" "http://www.w3.org/Graphics/SVG/1.1/DTD/svg11.dtd"><svg class="icon" width="200px" height="200.00px" viewBox="0 0 1024 1024" version="1.1" xmlns="http://www.w3.org/2000/svg"><path fill="#333333" d="M892.7 243.8H58l41.5-107h793.2v107z m-805.5-20h785.5v-67H113.2l-26 67z"  /><path fill="#333333" d="M716.3 688.6h-107V224.1h107v464.5z m-87.1-20h67V244.1h-67v424.5zM1018.2 266H874.8V106.7h143.4V266z m-123.4-20h103.4V126.7H894.8V246z"  /><path fill="#333333" d="M667.1 62.873l216.746 63.291-5.606 19.198-216.746-63.291z"  /><path fill="#333333" d="M669.095 63.118l3.08 19.762-473.003 73.72-3.08-19.762zM872.2 230.6L847 187l-25.2 43.6-17.3-10L847 147l42.5 73.6z"  /><path fill="#333333" d="M800.1 230.6L774.9 187l-25.2 43.6-17.3-10 42.5-73.6 42.5 73.6z"  /><path fill="#333333" d="M728 230.6L702.9 187l-25.2 43.6-17.4-10 42.6-73.6 42.5 73.6z"  /><path fill="#333333" d="M656 230.6L630.8 187l-25.2 43.6-17.3-10 42.5-73.6 42.5 73.6z"  /><path fill="#333333" d="M583.9 230.6L558.7 187l-25.2 43.6-17.3-10 42.5-73.6 42.5 73.6z"  /><path fill="#333333" d="M461.4 230.6l-17.3-10 42.5-73.6 42.5 73.6-17.3 10-25.2-43.6z"  /><path fill="#333333" d="M439.7 230.6L414.5 187l-25.2 43.6-17.3-10 42.5-73.6 42.5 73.6z"  /><path fill="#333333" d="M367.6 230.6L342.5 187l-25.2 43.6-17.4-10 42.6-73.6 42.5 73.6z"  /><path fill="#333333" d="M295.6 230.6L270.4 187l-25.2 43.6-17.3-10 42.5-73.6 42.5 73.6z"  /><path fill="#333333" d="M173.1 230.6l-17.3-10 42.5-73.6 42.5 73.6-17.3 10-25.2-43.6z"  /><path fill="#333333" d="M151.4 230.6L126.2 187 101 230.6l-17.3-10 42.5-73.6 42.5 73.6zM632.8 684.1l-10-17.3 43.7-25.2-43.7-25.1 10-17.4 73.7 42.5z"  /><path fill="#333333" d="M632.8 612.1l-10-17.4 43.7-25.1-43.7-25.2 10-17.3 73.7 42.5z"  /><path fill="#333333" d="M632.8 540l-10-17.3 43.7-25.2-43.7-25.2 10-17.3 73.7 42.5z"  /><path fill="#333333" d="M632.8 467.9l-10-17.3 43.7-25.2-43.7-25.2 10-17.3 73.7 42.5z"  /><path fill="#333333" d="M632.8 395.8l-10-17.3 43.7-25.2-43.7-25.2 10-17.3 73.7 42.5z"  /><path fill="#333333" d="M632.8 323.7l-10-17.3 43.7-25.2-43.7-25.1 10-17.4 73.7 42.5zM276.706 231.878l15.936 12.084-72.806 96.015-15.936-12.084z"  /><path fill="#333333" d="M150.311 231.898l72.806 96.014-15.936 12.084-72.806-96.014z"  /><path fill="#333333" d="M246.7 396.3h-69.1v-68h69.1v68z m-49-20h29.1v-28h-29.1v28z"  /><path fill="#333333" d="M200.9 389.8h20V433h-20z"  /><path fill="#333333" d="M205.9 412.3h32v20h-32zM235.5 907.4H103.9C57 907.4 19 869.3 19 822.5V618.4c0-46.8 38.1-84.9 84.9-84.9h131.6v373.9zM103.9 553.5c-35.8 0-64.9 29.1-64.9 64.9v204.2c0 35.8 29.1 64.9 64.9 64.9h111.6v-334H103.9zM361.1 986.4c-47.9 0-86.9-39-86.9-86.9 0-47.9 39-86.9 86.9-86.9s86.9 39 86.9 86.9c0 47.9-39 86.9-86.9 86.9z m0-153.9c-36.9 0-66.9 30-66.9 66.9 0 36.9 30 66.9 66.9 66.9 36.9 0 66.9-30 66.9-66.9 0-36.8-30-66.9-66.9-66.9zM685.3 986.4c-47.9 0-86.9-39-86.9-86.9 0-47.9 39-86.9 86.9-86.9 47.9 0 86.9 39 86.9 86.9 0 47.9-39 86.9-86.9 86.9z m0-153.9c-36.9 0-66.9 30-66.9 66.9 0 36.9 30 66.9 66.9 66.9 36.9 0 66.9-30 66.9-66.9 0-36.8-30-66.9-66.9-66.9zM862.4 986.4c-47.9 0-86.9-39-86.9-86.9 0-47.9 39-86.9 86.9-86.9s86.9 39 86.9 86.9c0 47.9-39 86.9-86.9 86.9z m0-153.9c-36.9 0-66.9 30-66.9 66.9 0 36.9 30 66.9 66.9 66.9s66.9-30 66.9-66.9c0-36.8-30-66.9-66.9-66.9z"  /><path fill="#333333" d="M992.4 906.9h-63l-0.2-9.8c-0.6-36.3-30.6-65.9-66.9-65.9-36.3 0-66.3 29.6-66.9 65.9l-0.2 9.8h-43l-0.2-9.8c-0.6-36.3-30.6-65.9-66.9-65.9-36.3 0-66.3 29.6-66.9 65.9l-0.2 9.8H428.1l-0.1-9.9c-0.6-36.3-30.6-65.9-66.9-65.9-36.3 0-66.3 29.6-66.9 65.9l-0.2 9.8h-78.3V747.3h776.7v159.6z m-43.8-20h23.8V767.3H235.7v119.5h39.2c2.5-19.2 11.2-36.9 25.2-50.7 16.4-16.1 38-25 61-25s44.6 8.9 61 25c14 13.8 22.7 31.5 25.2 50.7h151.8c2.5-19.2 11.2-36.9 25.2-50.7 16.4-16.1 38-25 61-25s44.6 8.9 61 25c14 13.8 22.7 31.5 25.2 50.7h4.7c2.5-19.2 11.2-36.9 25.2-50.7 16.4-16.1 38-25 61-25s44.6 8.9 61 25c14 13.9 22.7 31.6 25.2 50.8zM37.9 773.2h97.2v20H37.9z"  /><path fill="#333333" d="M115.8 550.6h20v242.7h-20zM841 767H481v-96h360v96z m-340-20h320v-56H501v56z"  /></svg>